<svg xmlns="http://www.w3.org/2000/svg" viewBox="0 0 1920 1080" preserveAspectRatio="xMidYMid slice" role="img" aria-label="Aveiro art nouveau canal with moliceiro boat">
  <defs>
    <linearGradient id="sky" x1="0" y1="0" x2="0" y2="1">
      <stop offset="0" stop-color="#F0C8B0"/>
      <stop offset="0.4" stop-color="#E09890"/>
      <stop offset="0.85" stop-color="#7A4858"/>
      <stop offset="1" stop-color="#3A2030"/>
    </linearGradient>
    <linearGradient id="canal" x1="0" y1="0" x2="0" y2="1">
      <stop offset="0" stop-color="#4A3848"/>
      <stop offset="1" stop-color="#1F1525"/>
    </linearGradient>
    <filter id="grain" x="0" y="0">
      <feTurbulence baseFrequency="0.85" numOctaves="2" seed="31"/>
      <feColorMatrix values="0 0 0 0 0.1  0 0 0 0 0.08  0 0 0 0 0.05  0 0 0 0.08 0"/>
      <feComposite in2="SourceGraphic" operator="in"/>
    </filter>
  </defs>
  <rect width="1920" height="540" fill="url(#sky)"/>
  <g fill="#1F1525">
    <rect x="100" y="380" width="120" height="160"/>
    <polygon points="100,380 220,380 200,350 120,350"/>
    <rect x="120" y="420" width="20" height="30" fill="#3A2030"/>
    <rect x="150" y="420" width="20" height="30" fill="#3A2030"/>
    <rect x="180" y="420" width="20" height="30" fill="#3A2030"/>
    <rect x="350" y="370" width="140" height="170"/>
    <polygon points="350,370 490,370 470,340 370,340"/>
    <rect x="380" y="410" width="20" height="35" fill="#3A2030"/>
    <rect x="420" y="410" width="20" height="35" fill="#3A2030"/>
    <rect x="460" y="410" width="20" height="35" fill="#3A2030"/>
    <rect x="650" y="350" width="160" height="190"/>
    <polygon points="650,350 810,350 790,310 670,310"/>
    <rect x="680" y="390" width="22" height="40" fill="#3A2030"/>
    <rect x="720" y="390" width="22" height="40" fill="#3A2030"/>
    <rect x="760" y="390" width="22" height="40" fill="#3A2030"/>
    <rect x="1000" y="360" width="180" height="180"/>
    <polygon points="1000,360 1180,360 1160,330 1020,330"/>
    <rect x="1030" y="400" width="22" height="45" fill="#3A2030"/>
    <rect x="1070" y="400" width="22" height="45" fill="#3A2030"/>
    <rect x="1110" y="400" width="22" height="45" fill="#3A2030"/>
    <rect x="1150" y="400" width="22" height="45" fill="#3A2030"/>
    <rect x="1380" y="370" width="200" height="170"/>
    <polygon points="1380,370 1580,370 1560,340 1400,340"/>
    <rect x="1410" y="410" width="24" height="40" fill="#3A2030"/>
    <rect x="1450" y="410" width="24" height="40" fill="#3A2030"/>
    <rect x="1500" y="410" width="24" height="40" fill="#3A2030"/>
    <rect x="1550" y="410" width="24" height="40" fill="#3A2030"/>
    <rect x="1700" y="390" width="120" height="150"/>
    <polygon points="1700,390 1820,390 1800,360 1720,360"/>
  </g>
  <rect y="540" width="1920" height="540" fill="url(#canal)"/>
  <g fill="#E09890" opacity="0.18">
    <rect y="580" width="1920" height="2"/>
    <rect y="640" width="1920" height="1.5"/>
    <rect y="700" width="1920" height="2.5"/>
    <rect y="780" width="1920" height="1.5"/>
    <rect y="860" width="1920" height="2"/>
    <rect y="940" width="1920" height="1.5"/>
  </g>
  <g fill="#3A2030">
    <path d="M700 740 L780 720 L900 740 L920 760 L760 770 Z"/>
    <rect x="800" y="700" width="6" height="20"/>
    <polygon points="800,700 820,700 810,680"/>
    <rect x="780" y="730" width="20" height="6" fill="#E09890"/>
    <rect x="820" y="730" width="20" height="6" fill="#E09890"/>
    <rect x="860" y="730" width="20" height="6" fill="#E09890"/>
  </g>
  <rect width="1920" height="1080" filter="url(#grain)" opacity="0.6"/>
</svg>
