<svg xmlns="http://www.w3.org/2000/svg" viewBox="0 0 1920 1080" preserveAspectRatio="xMidYMid slice" role="img" aria-label="Porto Ribeira at golden hour">
  <defs>
    <linearGradient id="sky" x1="0" y1="0" x2="0" y2="1">
      <stop offset="0" stop-color="#EAB875" stop-opacity="0.95"/>
      <stop offset="0.45" stop-color="#CE933F" stop-opacity="0.85"/>
      <stop offset="1" stop-color="#1D2A23" stop-opacity="1"/>
    </linearGradient>
    <linearGradient id="water" x1="0" y1="0" x2="0" y2="1">
      <stop offset="0" stop-color="#16281f" stop-opacity="0.95"/>
      <stop offset="0.5" stop-color="#0c1f16" stop-opacity="0.9"/>
      <stop offset="1" stop-color="#0c1f16" stop-opacity="0.95"/>
    </linearGradient>
    <linearGradient id="city" x1="0" y1="0" x2="0" y2="1">
      <stop offset="0" stop-color="#16281f" stop-opacity="0.95"/>
      <stop offset="1" stop-color="#0c1f16" stop-opacity="0.95"/>
    </linearGradient>
    <filter id="grain" x="0" y="0">
      <feTurbulence baseFrequency="0.85" numOctaves="2" seed="3"/>
      <feColorMatrix values="0 0 0 0 0.1  0 0 0 0 0.08  0 0 0 0 0.05  0 0 0 0.08 0"/>
      <feComposite in2="SourceGraphic" operator="in"/>
    </filter>
  </defs>
  <!-- Sky: golden-hour gradient (ochre-light → ochre-dark → ink) -->
  <rect width="1920" height="640" fill="url(#sky)"/>
  <!-- Distant hills silhouette -->
  <path d="M0 480 L160 440 L320 460 L520 410 L720 430 L900 400 L1080 420 L1280 405 L1480 425 L1680 410 L1920 430 L1920 540 L0 540 Z" fill="#1D2A23" opacity="0.55"/>
  <path d="M0 510 L240 480 L480 495 L720 470 L960 485 L1200 460 L1440 480 L1680 465 L1920 480 L1920 540 L0 540 Z" fill="#16281f" opacity="0.65"/>
  <!-- City silhouette: the Ribeira row of houses along the Douro -->
  <g fill="url(#city)">
    <!-- back row: a continuous row of terracotta-roofed houses -->
    <path d="M0 540 L0 600 L80 600 L80 580 L100 580 L100 600 L160 600 L160 590 L180 590 L180 600 L260 600 L260 575 L290 575 L290 600 L360 600 L360 595 L390 595 L390 600 L460 600 L460 580 L500 580 L500 600 L560 600 L560 590 L600 590 L600 600 L680 600 L680 570 L720 570 L720 600 L780 600 L780 580 L820 580 L820 600 L880 600 L880 595 L910 595 L910 600 L980 600 L980 575 L1020 575 L1020 600 L1080 600 L1080 590 L1120 590 L1120 600 L1180 600 L1180 580 L1220 580 L1220 600 L1280 600 L1280 595 L1320 595 L1320 600 L1380 600 L1380 570 L1420 570 L1420 600 L1480 600 L1480 585 L1520 585 L1520 600 L1580 600 L1580 590 L1620 590 L1620 600 L1680 600 L1680 580 L1720 580 L1720 600 L1780 600 L1780 595 L1820 595 L1820 600 L1920 600 L1920 540 Z"/>
    <!-- church / cathedral in the middle (Clérigos tower silhouette) -->
    <rect x="900" y="430" width="36" height="170" fill="#0c1f16"/>
    <polygon points="918,420 936,430 936,440 900,440 900,430" fill="#0c1f16"/>
    <circle cx="918" cy="410" r="14" fill="#0c1f16"/>
    <polygon points="904,406 932,406 918,388" fill="#0c1f16"/>
    <!-- second bell tower -->
    <rect x="950" y="450" width="28" height="150" fill="#0c1f16"/>
    <polygon points="964,442 978,450 978,458 950,458 950,450" fill="#0c1f16"/>
  </g>
  <!-- Rooftop ochre accents (terracotta tiles) -->
  <g fill="#CE933F" opacity="0.85">
    <rect x="80" y="582" width="20" height="4"/>
    <rect x="160" y="592" width="20" height="4"/>
    <rect x="260" y="577" width="30" height="4"/>
    <rect x="360" y="597" width="30" height="4"/>
    <rect x="460" y="582" width="40" height="4"/>
    <rect x="560" y="592" width="40" height="4"/>
    <rect x="680" y="572" width="40" height="4"/>
    <rect x="780" y="582" width="40" height="4"/>
    <rect x="880" y="597" width="30" height="4"/>
    <rect x="980" y="577" width="40" height="4"/>
    <rect x="1080" y="592" width="40" height="4"/>
    <rect x="1180" y="582" width="40" height="4"/>
    <rect x="1280" y="597" width="40" height="4"/>
    <rect x="1380" y="572" width="40" height="4"/>
    <rect x="1480" y="587" width="40" height="4"/>
    <rect x="1580" y="592" width="40" height="4"/>
    <rect x="1680" y="582" width="40" height="4"/>
    <rect x="1780" y="597" width="40" height="4"/>
  </g>
  <!-- Water: Douro river -->
  <rect y="600" width="1920" height="480" fill="url(#water)"/>
  <!-- Water reflections (ochre streaks) -->
  <g fill="#CE933F" opacity="0.18">
    <rect y="640" width="1920" height="2"/>
    <rect y="680" width="1920" height="1.5"/>
    <rect y="730" width="1920" height="2.5"/>
    <rect y="780" width="1920" height="1.5"/>
    <rect y="840" width="1920" height="2"/>
    <rect y="910" width="1920" height="1.5"/>
  </g>
  <!-- Rabelo boat silhouette -->
  <g fill="#0c1f16">
    <path d="M760 740 Q820 720 880 740 L860 760 L780 760 Z"/>
    <rect x="800" y="720" width="2" height="20"/>
    <rect x="800" y="708" width="40" height="14"/>
  </g>
  <!-- Subtle film grain -->
  <rect width="1920" height="1080" filter="url(#grain)" opacity="0.6"/>
</svg>
